<mxfile host="app.diagrams.net" modified="2023-11-12T14:11:12.204Z" agent="Mozilla/5.0 (Windows NT 10.0; Win64; x64) AppleWebKit/537.36 (KHTML, like Gecko) Chrome/119.0.0.0 Safari/537.36" etag="sa2ySs8-Bc--c0lCBy-_" version="22.1.0" type="device">
  <diagram name="페이지-1" id="nJjQuzxzFOZdTHx67VrJ">
    <mxGraphModel dx="2363" dy="208" grid="0" gridSize="10" guides="1" tooltips="1" connect="1" arrows="1" fold="1" page="0" pageScale="1" pageWidth="1169" pageHeight="827" background="#FFFFFF" math="0" shadow="0">
      <root>
        <mxCell id="0" />
        <mxCell id="1" parent="0" />
        <mxCell id="q1l0Mfk32L4LQjD-C9zq-31" value="" style="edgeStyle=orthogonalEdgeStyle;rounded=0;orthogonalLoop=1;jettySize=auto;html=1;verticalAlign=top;" parent="1" edge="1">
          <mxGeometry relative="1" as="geometry">
            <mxPoint x="1940" y="250" as="sourcePoint" />
          </mxGeometry>
        </mxCell>
        <mxCell id="7Ne4PcIB_8j4skOOkWno-11" value="" style="edgeStyle=orthogonalEdgeStyle;rounded=0;orthogonalLoop=1;jettySize=auto;html=1;fontStyle=0;fontSize=14;" parent="1" source="7Ne4PcIB_8j4skOOkWno-4" target="7Ne4PcIB_8j4skOOkWno-10" edge="1">
          <mxGeometry relative="1" as="geometry" />
        </mxCell>
        <mxCell id="7Ne4PcIB_8j4skOOkWno-4" value="server.js" style="ellipse;whiteSpace=wrap;html=1;strokeWidth=7;strokeColor=#62eaf3;fontSize=14;fontStyle=0;fontFamily=Lucida Console;" parent="1" vertex="1">
          <mxGeometry x="-1012" y="499" width="120" height="80" as="geometry" />
        </mxCell>
        <mxCell id="RgNdXCvuJSfU4lVXTxl4-20" style="edgeStyle=orthogonalEdgeStyle;rounded=0;orthogonalLoop=1;jettySize=auto;html=1;exitX=0.5;exitY=0;exitDx=0;exitDy=0;entryX=0;entryY=0.5;entryDx=0;entryDy=0;endArrow=none;endFill=0;" edge="1" parent="1" source="7Ne4PcIB_8j4skOOkWno-10" target="RgNdXCvuJSfU4lVXTxl4-15">
          <mxGeometry relative="1" as="geometry" />
        </mxCell>
        <mxCell id="RgNdXCvuJSfU4lVXTxl4-22" style="edgeStyle=orthogonalEdgeStyle;rounded=0;orthogonalLoop=1;jettySize=auto;html=1;exitX=0.5;exitY=1;exitDx=0;exitDy=0;entryX=0;entryY=0.5;entryDx=0;entryDy=0;endArrow=none;endFill=0;" edge="1" parent="1" source="7Ne4PcIB_8j4skOOkWno-10" target="RgNdXCvuJSfU4lVXTxl4-16">
          <mxGeometry relative="1" as="geometry" />
        </mxCell>
        <mxCell id="7Ne4PcIB_8j4skOOkWno-10" value="router" style="ellipse;whiteSpace=wrap;html=1;strokeWidth=7;strokeColor=#dc4eef;fontSize=14;fontStyle=0;fontFamily=Lucida Console;" parent="1" vertex="1">
          <mxGeometry x="-821" y="499" width="120" height="80" as="geometry" />
        </mxCell>
        <mxCell id="RgNdXCvuJSfU4lVXTxl4-21" style="edgeStyle=orthogonalEdgeStyle;rounded=0;orthogonalLoop=1;jettySize=auto;html=1;endArrow=none;endFill=0;entryX=0.5;entryY=0;entryDx=0;entryDy=0;" edge="1" parent="1" source="RgNdXCvuJSfU4lVXTxl4-15" target="7Ne4PcIB_8j4skOOkWno-38">
          <mxGeometry relative="1" as="geometry">
            <mxPoint x="-498" y="501" as="targetPoint" />
          </mxGeometry>
        </mxCell>
        <mxCell id="RgNdXCvuJSfU4lVXTxl4-15" value="auth: JWT" style="ellipse;whiteSpace=wrap;html=1;strokeWidth=7;strokeColor=#7EA6E0;fontSize=14;fontStyle=0;fontFamily=Lucida Console;" vertex="1" parent="1">
          <mxGeometry x="-680" y="425" width="120" height="80" as="geometry" />
        </mxCell>
        <mxCell id="RgNdXCvuJSfU4lVXTxl4-23" style="edgeStyle=orthogonalEdgeStyle;rounded=0;orthogonalLoop=1;jettySize=auto;html=1;exitX=1;exitY=0.5;exitDx=0;exitDy=0;endArrow=none;endFill=0;entryX=0.5;entryY=1;entryDx=0;entryDy=0;" edge="1" parent="1" source="RgNdXCvuJSfU4lVXTxl4-16" target="7Ne4PcIB_8j4skOOkWno-38">
          <mxGeometry relative="1" as="geometry">
            <mxPoint x="-483" y="583" as="targetPoint" />
          </mxGeometry>
        </mxCell>
        <mxCell id="RgNdXCvuJSfU4lVXTxl4-16" value="utils/token.js" style="ellipse;whiteSpace=wrap;html=1;strokeWidth=7;strokeColor=#7EA6E0;fontSize=14;fontStyle=0;fontFamily=Lucida Console;" vertex="1" parent="1">
          <mxGeometry x="-680" y="579" width="120" height="80" as="geometry" />
        </mxCell>
        <mxCell id="7Ne4PcIB_8j4skOOkWno-38" value="DB" style="ellipse;whiteSpace=wrap;html=1;strokeWidth=7;strokeColor=#28c35e;fontSize=14;fontStyle=0;fontFamily=Lucida Console;" parent="1" vertex="1">
          <mxGeometry x="-539" y="499" width="120" height="80" as="geometry" />
        </mxCell>
      </root>
    </mxGraphModel>
  </diagram>
</mxfile>
